<?xml version="1.0" encoding="UTF-8"?>
<svg xmlns="http://www.w3.org/2000/svg" xmlns:xlink="http://www.w3.org/1999/xlink" width="21px" height="22px" viewBox="0 0 21 22" version="1.1">
<g id="surface1">
<rect x="0" y="0" width="21" height="22" style="fill:rgb(96.862745%,87.450981%,11.764706%);fill-opacity:1;stroke:none;"/>
<path style=" stroke:none;fill-rule:nonzero;fill:rgb(0%,0%,0%);fill-opacity:1;" d="M 5.523438 18.386719 L 7.128906 17.367188 C 7.4375 17.941406 7.722656 18.429688 8.398438 18.429688 C 9.046875 18.429688 9.453125 18.164062 9.453125 17.128906 L 9.453125 10.101562 L 11.429688 10.101562 L 11.429688 17.160156 C 11.429688 19.300781 10.230469 20.273438 8.480469 20.273438 C 6.902344 20.273438 5.988281 19.417969 5.523438 18.382812 "/>
<path style=" stroke:none;fill-rule:nonzero;fill:rgb(0%,0%,0%);fill-opacity:1;" d="M 12.5 18.164062 L 14.105469 17.1875 C 14.53125 17.914062 15.078125 18.445312 16.050781 18.445312 C 16.871094 18.445312 17.390625 18.015625 17.390625 17.425781 C 17.390625 16.714844 16.855469 16.464844 15.953125 16.050781 L 15.460938 15.828125 C 14.035156 15.195312 13.09375 14.398438 13.09375 12.714844 C 13.09375 11.164062 14.21875 9.980469 15.980469 9.980469 C 17.238281 9.980469 18.136719 10.441406 18.785156 11.636719 L 17.25 12.667969 C 16.910156 12.035156 16.546875 11.785156 15.980469 11.785156 C 15.402344 11.785156 15.039062 12.167969 15.039062 12.667969 C 15.039062 13.289062 15.402344 13.542969 16.25 13.925781 L 16.742188 14.148438 C 18.421875 14.898438 19.363281 15.667969 19.363281 17.394531 C 19.363281 19.257812 17.96875 20.273438 16.09375 20.273438 C 14.261719 20.273438 13.078125 19.359375 12.5 18.164062 "/>
</g>
</svg>
