<?xml version="1.0" encoding="UTF-8"?>
<svg xmlns="http://www.w3.org/2000/svg" xmlns:xlink="http://www.w3.org/1999/xlink" width="21px" height="22px" viewBox="0 0 21 22" version="1.1">
<g id="surface1">
<path style=" stroke:none;fill-rule:nonzero;fill:rgb(46.27451%,29.019609%,73.725492%);fill-opacity:1;" d="M 14.296875 14.820312 C 15.023438 14.742188 15.574219 14.097656 15.550781 13.324219 C 15.523438 12.550781 14.898438 11.929688 14.148438 11.929688 L 14.097656 11.929688 C 13.320312 11.957031 12.71875 12.625 12.746094 13.425781 C 12.769531 13.8125 12.917969 14.148438 13.144531 14.382812 C 12.292969 16.109375 10.992188 17.375 9.035156 18.433594 C 7.707031 19.15625 6.332031 19.414062 4.953125 19.230469 C 3.824219 19.078125 2.949219 18.5625 2.398438 17.710938 C 1.59375 16.445312 1.519531 15.078125 2.195312 13.710938 C 2.671875 12.730469 3.425781 12.007812 3.902344 11.644531 C 3.800781 11.308594 3.648438 10.742188 3.574219 10.328125 C -0.0585938 13.039062 0.316406 16.703125 1.421875 18.433594 C 2.246094 19.722656 3.925781 20.523438 5.78125 20.523438 C 6.28125 20.523438 6.78125 20.472656 7.28125 20.34375 C 10.488281 19.695312 12.917969 17.734375 14.296875 14.820312 Z M 18.707031 11.621094 C 16.804688 9.324219 13.996094 8.058594 10.789062 8.058594 L 10.390625 8.058594 C 10.164062 7.59375 9.6875 7.285156 9.160156 7.285156 L 9.113281 7.285156 C 8.335938 7.3125 7.734375 7.980469 7.757812 8.78125 C 7.785156 9.554688 8.410156 10.175781 9.160156 10.175781 L 9.210938 10.175781 C 9.761719 10.148438 10.238281 9.789062 10.4375 9.296875 L 10.890625 9.296875 C 12.792969 9.296875 14.597656 9.863281 16.226562 10.976562 C 17.480469 11.828125 18.382812 12.9375 18.882812 14.277344 C 19.308594 15.363281 19.28125 16.417969 18.832031 17.324219 C 18.128906 18.691406 16.953125 19.4375 15.398438 19.4375 C 14.398438 19.4375 13.445312 19.128906 12.945312 18.898438 C 12.667969 19.15625 12.167969 19.566406 11.816406 19.824219 C 12.894531 20.34375 13.996094 20.625 15.050781 20.625 C 17.453125 20.625 19.234375 19.257812 19.910156 17.890625 C 20.636719 16.394531 20.585938 13.8125 18.707031 11.621094 Z M 5.980469 15.257812 C 6.003906 16.03125 6.632812 16.652344 7.382812 16.652344 L 7.433594 16.652344 C 8.210938 16.625 8.8125 15.953125 8.785156 15.15625 C 8.761719 14.382812 8.132812 13.761719 7.382812 13.761719 L 7.332031 13.761719 C 7.28125 13.761719 7.207031 13.761719 7.15625 13.789062 C 6.128906 12.03125 5.703125 10.125 5.855469 8.058594 C 5.953125 6.511719 6.457031 5.167969 7.332031 4.058594 C 8.058594 3.105469 9.460938 2.640625 10.414062 2.613281 C 13.070312 2.5625 14.199219 5.96875 14.273438 7.335938 C 14.597656 7.414062 15.148438 7.59375 15.523438 7.722656 C 15.222656 3.542969 12.71875 1.375 10.3125 1.375 C 8.058594 1.375 5.980469 3.054688 5.152344 5.53125 C 4 8.832031 4.753906 12.007812 6.15625 14.511719 C 6.03125 14.691406 5.953125 14.972656 5.980469 15.257812 Z M 5.980469 15.257812 "/>
</g>
</svg>
