<?xml version="1.0" encoding="UTF-8"?>
<svg xmlns="http://www.w3.org/2000/svg" xmlns:xlink="http://www.w3.org/1999/xlink" width="21px" height="22px" viewBox="0 0 21 22" version="1.1">
<g id="surface1">
<path style=" stroke:none;fill-rule:nonzero;fill:rgb(95.294118%,45.09804%,40.784314%);fill-opacity:1;" d="M 15.644531 10.355469 L 15.644531 13.140625 L 14.789062 13.140625 L 14.789062 9.917969 Z M 15.644531 10.355469 "/>
<path style=" stroke:none;fill-rule:nonzero;fill:rgb(96.862745%,63.137257%,60.000002%);fill-opacity:1;" d="M 3.523438 12.625 L 4.164062 13.210938 L 6.871094 11.730469 L 6.589844 11.027344 Z M 14.789062 10.828125 L 16.964844 9.644531 L 16.597656 8.976562 L 14.789062 9.917969 Z M 14.789062 10.828125 "/>
<path style=" stroke:none;fill-rule:nonzero;fill:rgb(95.294118%,45.09804%,40.784314%);fill-opacity:1;" d="M 8.660156 10.136719 L 8.660156 13.140625 L 7.839844 13.140625 L 7.839844 8.859375 Z M 3.523438 12.625 L 4.164062 13.210938 L 5.402344 9.96875 L 5.003906 8.859375 Z M 3.523438 12.625 "/>
<path style=" stroke:none;fill-rule:nonzero;fill:rgb(94.117647%,28.627452%,22.352941%);fill-opacity:1;" d="M 5.003906 8.859375 L 5.847656 8.859375 L 7.414062 13.140625 L 6.542969 13.140625 Z M 8.785156 8.859375 L 10.589844 11.78125 L 10.589844 13.140625 L 7.839844 8.859375 Z M 12.136719 8.859375 L 12.988281 8.859375 L 12.988281 13.140625 L 12.136719 13.140625 Z M 14.789062 9.644531 L 13.480469 9.644531 L 13.480469 8.859375 L 16.53125 8.859375 L 16.964844 9.644531 Z M 14.789062 9.644531 "/>
<path style=" stroke:none;fill-rule:nonzero;fill:rgb(96.862745%,63.137257%,60.000002%);fill-opacity:1;" d="M 19.484375 11.515625 L 19.484375 13.140625 L 18.636719 13.140625 L 18.636719 11.515625 "/>
<path style=" stroke:none;fill-rule:nonzero;fill:rgb(94.117647%,28.627452%,22.352941%);fill-opacity:1;" d="M 20.066406 8.859375 L 18.636719 11.515625 L 19.484375 11.515625 L 20.964844 8.859375 Z M 20.066406 8.859375 "/>
<path style=" stroke:none;fill-rule:nonzero;fill:rgb(95.294118%,45.09804%,40.784314%);fill-opacity:1;" d="M 18.636719 11.515625 L 17.164062 8.859375 L 18.089844 8.859375 L 19.085938 10.679688 Z M 18.636719 11.515625 "/>
<path style=" stroke:none;fill-rule:nonzero;fill:rgb(94.117647%,28.627452%,22.352941%);fill-opacity:1;" d="M 0.351562 9.359375 C 0.351562 9.949219 0.703125 10.304688 1.402344 10.492188 L 2.148438 10.671875 C 2.8125 10.835938 3.21875 11.234375 3.21875 11.882812 C 3.222656 12.164062 3.136719 12.4375 2.972656 12.660156 C 2.972656 12.011719 2.652344 11.664062 1.886719 11.453125 L 1.152344 11.277344 C 0.566406 11.140625 0.113281 10.808594 0.113281 10.105469 C 0.113281 9.835938 0.195312 9.570312 0.351562 9.359375 "/>
<path style=" stroke:none;fill-rule:nonzero;fill:rgb(95.294118%,45.09804%,40.784314%);fill-opacity:1;" d="M 10.589844 11.5625 L 10.589844 8.859375 L 11.410156 8.859375 L 11.410156 13.140625 L 10.589844 13.140625 Z M 10.589844 11.5625 "/>
<path style=" stroke:none;fill-rule:nonzero;fill:rgb(95.294118%,45.09804%,40.784314%);fill-opacity:1;" d="M 2.515625 11.71875 C 2.832031 11.929688 2.972656 12.230469 2.972656 12.660156 C 2.707031 13.015625 2.25 13.210938 1.707031 13.210938 C 0.796875 13.210938 0.148438 12.734375 0.0117188 11.917969 L 0.886719 11.917969 C 1 12.292969 1.296875 12.46875 1.703125 12.46875 C 2.183594 12.472656 2.511719 12.199219 2.515625 11.71875 M 0.351562 9.351562 C 0.605469 9.003906 1.046875 8.789062 1.582031 8.789062 C 2.515625 8.789062 3.050781 9.308594 3.1875 10.03125 L 2.34375 10.03125 C 2.25 9.742188 2.015625 9.519531 1.59375 9.519531 C 1.136719 9.527344 0.828125 9.800781 0.808594 10.238281 C 0.503906 10.058594 0.339844 9.714844 0.351562 9.351562 Z M 0.351562 9.351562 "/>
</g>
</svg>
