<?xml version="1.0" encoding="UTF-8"?>
<svg xmlns="http://www.w3.org/2000/svg" xmlns:xlink="http://www.w3.org/1999/xlink" width="21px" height="22px" viewBox="0 0 21 22" version="1.1">
<g id="surface1">
<path style=" stroke:none;fill-rule:nonzero;fill:rgb(80.392158%,40.392157%,60.000002%);fill-opacity:1;" d="M 17.132812 12.082031 C 16.558594 12.082031 15.988281 12.21875 15.46875 12.484375 C 15.308594 12.203125 15.183594 11.898438 15.097656 11.582031 C 15.046875 11.332031 15.035156 11.078125 15.0625 10.824219 C 15.121094 10.546875 15.191406 10.273438 15.28125 10.007812 C 15.277344 9.972656 15.242188 9.804688 14.871094 9.800781 C 14.503906 9.792969 14.183594 9.875 14.148438 9.976562 C 14.085938 10.164062 14.035156 10.355469 13.996094 10.550781 C 13.691406 11.339844 13.3125 12.097656 12.871094 12.8125 C 12.625 12.386719 12.523438 11.886719 12.582031 11.394531 C 12.640625 11.117188 12.710938 10.84375 12.800781 10.574219 C 12.796875 10.539062 12.761719 10.371094 12.390625 10.367188 C 12.023438 10.363281 11.703125 10.441406 11.667969 10.542969 C 11.636719 10.644531 11.59375 10.886719 11.515625 11.117188 C 11.4375 11.347656 10.542969 13.445312 10.308594 13.984375 C 10.1875 14.261719 10.082031 14.484375 10.007812 14.636719 C 9.929688 14.792969 9.894531 14.863281 9.894531 14.863281 L 9.894531 14.867188 C 9.84375 14.964844 9.789062 15.050781 9.765625 15.050781 C 9.714844 14.855469 9.71875 14.648438 9.769531 14.453125 C 9.902344 13.726562 10.222656 12.59375 10.21875 12.554688 C 10.21875 12.535156 10.28125 12.335938 10.011719 12.234375 C 9.882812 12.171875 9.730469 12.199219 9.632812 12.304688 C 9.609375 12.304688 9.59375 12.363281 9.59375 12.363281 C 9.59375 12.363281 9.882812 11.089844 9.035156 11.089844 C 8.367188 11.230469 7.78125 11.648438 7.410156 12.25 C 7.183594 12.378906 6.695312 12.65625 6.175781 12.957031 C 5.980469 13.070312 5.773438 13.1875 5.582031 13.300781 C 5.570312 13.285156 5.554688 13.265625 5.542969 13.253906 C 4.507812 12.101562 2.609375 11.285156 2.691406 9.742188 C 2.722656 9.179688 2.90625 7.703125 6.339844 5.910156 C 9.164062 4.449219 11.414062 4.855469 11.800781 5.75 C 12.359375 7.03125 10.597656 9.410156 7.679688 9.753906 C 7.023438 9.890625 6.34375 9.710938 5.832031 9.265625 C 5.679688 9.089844 5.652344 9.078125 5.597656 9.113281 C 5.503906 9.164062 5.5625 9.324219 5.597656 9.414062 C 5.820312 9.84375 6.203125 10.15625 6.652344 10.285156 C 7.800781 10.542969 8.996094 10.417969 10.074219 9.929688 C 11.847656 9.210938 13.226562 7.21875 12.820312 5.546875 C 12.414062 3.851562 9.730469 3.292969 7.1875 4.242188 C 5.597656 4.800781 4.125 5.6875 2.859375 6.84375 C 1.460938 8.214844 1.238281 9.40625 1.332031 9.90625 C 1.660156 11.675781 3.988281 12.832031 4.921875 13.6875 C 4.875 13.714844 4.832031 13.738281 4.792969 13.757812 C 4.328125 14.003906 2.550781 14.976562 2.101562 16.007812 C 1.601562 17.175781 2.183594 18.011719 2.570312 18.125 C 3.761719 18.421875 5.003906 17.894531 5.660156 16.8125 C 6.214844 15.921875 6.320312 14.804688 5.9375 13.820312 L 6.289062 13.574219 C 6.527344 13.425781 6.765625 13.289062 6.964844 13.175781 C 6.828125 13.589844 6.75 14.019531 6.726562 14.457031 C 6.679688 15.125 6.875 15.785156 7.273438 16.3125 C 7.398438 16.421875 7.554688 16.476562 7.71875 16.460938 C 8.109375 16.460938 8.292969 16.117188 8.488281 15.710938 C 8.730469 15.210938 8.949219 14.632812 8.949219 14.632812 C 8.949219 14.632812 8.675781 16.199219 9.414062 16.199219 C 9.683594 16.199219 9.957031 15.832031 10.078125 15.648438 L 10.078125 15.652344 C 10.078125 15.652344 10.082031 15.644531 10.097656 15.617188 L 10.140625 15.542969 L 10.140625 15.539062 C 10.246094 15.339844 10.488281 14.894531 10.847656 14.152344 C 11.3125 13.195312 11.757812 12 11.757812 12 C 11.800781 12.261719 11.859375 12.523438 11.9375 12.777344 C 12.042969 13.085938 12.171875 13.386719 12.320312 13.675781 C 12.210938 13.835938 12.144531 13.921875 12.144531 13.921875 L 12.148438 13.925781 C 12.058594 14.046875 11.964844 14.175781 11.863281 14.304688 C 11.550781 14.660156 11.261719 15.039062 11 15.433594 C 10.917969 15.574219 10.953125 15.753906 11.082031 15.847656 C 11.21875 15.921875 11.375 15.949219 11.53125 15.925781 C 11.761719 15.910156 11.988281 15.855469 12.203125 15.765625 C 12.410156 15.6875 12.605469 15.578125 12.785156 15.445312 C 13.15625 15.171875 13.367188 14.71875 13.34375 14.246094 C 13.320312 13.953125 13.25 13.664062 13.132812 13.398438 C 13.164062 13.347656 13.195312 13.300781 13.226562 13.25 C 13.601562 12.667969 13.9375 12.058594 14.234375 11.429688 C 14.277344 11.691406 14.335938 11.949219 14.414062 12.207031 C 14.5 12.472656 14.613281 12.730469 14.742188 12.980469 C 14.3125 13.324219 13.972656 13.78125 13.757812 14.300781 C 13.546875 14.941406 13.710938 15.226562 14.019531 15.292969 C 14.191406 15.308594 14.359375 15.269531 14.511719 15.191406 C 14.734375 15.113281 14.941406 15 15.132812 14.855469 C 15.535156 14.605469 15.792969 14.160156 15.816406 13.667969 C 15.800781 13.425781 15.75 13.1875 15.660156 12.964844 C 16.226562 12.730469 16.84375 12.65625 17.445312 12.75 C 19.042969 12.945312 19.355469 13.988281 19.296875 14.429688 C 19.238281 14.746094 19.054688 15.019531 18.789062 15.183594 C 18.679688 15.253906 18.644531 15.28125 18.652344 15.332031 C 18.664062 15.410156 18.71875 15.40625 18.8125 15.394531 C 19.304688 15.234375 19.652344 14.769531 19.6875 14.230469 C 19.738281 13.199219 18.796875 12.070312 17.136719 12.078125 Z M 4.808594 16.429688 C 4.28125 17.035156 3.542969 17.265625 3.222656 17.070312 C 2.878906 16.863281 3.015625 15.972656 3.664062 15.332031 C 4.050781 14.964844 4.46875 14.640625 4.914062 14.355469 C 4.988281 14.308594 5.105469 14.238281 5.242188 14.148438 L 5.277344 14.128906 L 5.359375 14.074219 C 5.59375 14.90625 5.386719 15.808594 4.808594 16.429688 Z M 8.667969 13.679688 C 8.484375 14.152344 8.097656 15.359375 7.863281 15.292969 C 7.664062 15.234375 7.535156 14.320312 7.824219 13.417969 C 7.96875 12.980469 8.183594 12.574219 8.453125 12.210938 C 8.742188 11.875 9.058594 11.761719 9.136719 11.898438 C 9.066406 12.515625 8.910156 13.113281 8.667969 13.679688 Z M 11.855469 15.277344 C 11.777344 15.320312 11.703125 15.347656 11.671875 15.328125 C 11.644531 15.3125 11.703125 15.257812 11.703125 15.257812 C 11.703125 15.257812 12.101562 14.808594 12.261719 14.605469 C 12.351562 14.484375 12.457031 14.34375 12.574219 14.1875 L 12.574219 14.230469 C 12.574219 14.769531 12.078125 15.132812 11.855469 15.277344 Z M 14.3125 14.691406 C 14.253906 14.648438 14.265625 14.507812 14.457031 14.066406 C 14.589844 13.785156 14.773438 13.535156 15.003906 13.328125 C 15.039062 13.433594 15.054688 13.542969 15.058594 13.652344 C 15.0625 14.136719 14.757812 14.5625 14.3125 14.691406 Z M 14.3125 14.691406 "/>
</g>
</svg>
