<?xml version="1.0" encoding="UTF-8"?>
<svg xmlns="http://www.w3.org/2000/svg" xmlns:xlink="http://www.w3.org/1999/xlink" width="21px" height="22px" viewBox="0 0 21 22" version="1.1">
<defs>
<filter id="alpha" filterUnits="objectBoundingBox" x="0%" y="0%" width="100%" height="100%">
  <feColorMatrix type="matrix" in="SourceGraphic" values="0 0 0 0 1 0 0 0 0 1 0 0 0 0 1 0 0 0 1 0"/>
</filter>
<mask id="mask0">
  <g filter="url(#alpha)">
<rect x="0" y="0" width="21" height="22" style="fill:rgb(0%,0%,0%);fill-opacity:0.403922;stroke:none;"/>
  </g>
</mask>
<clipPath id="clip1">
  <rect x="0" y="0" width="21" height="22"/>
</clipPath>
<g id="surface5" clip-path="url(#clip1)">
<path style=" stroke:none;fill-rule:evenodd;fill:rgb(55.686277%,45.882353%,100%);fill-opacity:1;" d="M 1.476562 9.019531 L 1.476562 10.617188 L 0.046875 10.617188 C 0.0273438 10.617188 0.0117188 10.605469 0.00390625 10.585938 C -0.00390625 10.566406 0 10.546875 0.015625 10.53125 Z M 3.15625 13.78125 C 3.140625 13.796875 3.121094 13.800781 3.101562 13.792969 C 3.085938 13.785156 3.074219 13.765625 3.074219 13.746094 L 3.074219 12.269531 L 4.621094 12.269531 Z M 3.15625 13.78125 "/>
</g>
<mask id="mask1">
  <g filter="url(#alpha)">
<rect x="0" y="0" width="21" height="22" style="fill:rgb(0%,0%,0%);fill-opacity:0.403922;stroke:none;"/>
  </g>
</mask>
<clipPath id="clip2">
  <rect x="0" y="0" width="21" height="22"/>
</clipPath>
<g id="surface8" clip-path="url(#clip2)">
<path style=" stroke:none;fill-rule:evenodd;fill:rgb(55.686277%,45.882353%,100%);fill-opacity:1;" d="M 1.476562 10.617188 L 3.023438 10.617188 C 3.050781 10.617188 3.074219 10.640625 3.074219 10.667969 L 3.074219 12.269531 L 1.574219 12.269531 C 1.519531 12.269531 1.476562 12.222656 1.476562 12.167969 Z M 1.476562 10.617188 "/>
</g>
</defs>
<g id="surface1">
<path style=" stroke:none;fill-rule:evenodd;fill:rgb(55.686277%,45.882353%,100%);fill-opacity:1;" d="M 4.523438 9.019531 L 1.476562 9.019531 L 1.476562 10.617188 L 2.976562 10.617188 C 3.03125 10.617188 3.074219 10.664062 3.074219 10.71875 L 3.074219 12.269531 L 4.621094 12.269531 L 4.621094 9.121094 C 4.621094 9.09375 4.609375 9.066406 4.59375 9.046875 C 4.574219 9.027344 4.550781 9.019531 4.523438 9.019531 Z M 4.523438 9.019531 "/>
<use xlink:href="#surface5" mask="url(#mask0)"/>
<use xlink:href="#surface8" mask="url(#mask1)"/>
<path style=" stroke:none;fill-rule:evenodd;fill:rgb(18.431373%,18.039216%,54.509807%);fill-opacity:1;" d="M 20.222656 8.917969 C 20.308594 9.007812 20.410156 9.050781 20.53125 9.050781 C 20.652344 9.050781 20.753906 9.007812 20.839844 8.917969 C 20.929688 8.828125 20.972656 8.722656 20.972656 8.601562 C 20.972656 8.476562 20.929688 8.371094 20.839844 8.28125 C 20.761719 8.191406 20.648438 8.140625 20.53125 8.144531 C 20.410156 8.144531 20.308594 8.1875 20.222656 8.28125 C 20.136719 8.371094 20.09375 8.476562 20.09375 8.601562 C 20.09375 8.722656 20.136719 8.828125 20.222656 8.917969 Z M 10.839844 10.085938 C 10.839844 10.097656 10.835938 10.105469 10.824219 10.105469 L 10.21875 10.105469 L 10.21875 11.292969 C 10.21875 11.390625 10.242188 11.464844 10.289062 11.511719 C 10.335938 11.554688 10.40625 11.582031 10.5 11.585938 C 10.582031 11.59375 10.6875 11.59375 10.808594 11.585938 L 10.824219 11.585938 C 10.828125 11.585938 10.832031 11.585938 10.835938 11.589844 C 10.839844 11.59375 10.839844 11.597656 10.839844 11.601562 L 10.839844 12.238281 C 10.839844 12.246094 10.835938 12.253906 10.828125 12.253906 L 10.816406 12.257812 C 10.339844 12.308594 10.003906 12.261719 9.808594 12.109375 C 9.605469 11.957031 9.507812 11.683594 9.507812 11.292969 L 9.507812 10.105469 L 9.042969 10.105469 C 9.035156 10.105469 9.027344 10.097656 9.027344 10.085938 L 9.027344 9.410156 C 9.027344 9.402344 9.035156 9.394531 9.042969 9.394531 L 9.507812 9.394531 L 9.507812 8.921875 C 9.507812 8.910156 9.515625 8.898438 9.527344 8.890625 L 10.195312 8.585938 C 10.199219 8.582031 10.207031 8.585938 10.210938 8.585938 C 10.214844 8.589844 10.21875 8.597656 10.21875 8.601562 L 10.21875 9.394531 L 10.824219 9.394531 C 10.835938 9.394531 10.839844 9.402344 10.839844 9.410156 Z M 12.132812 9.886719 C 12.199219 9.703125 12.308594 9.566406 12.460938 9.476562 C 12.609375 9.386719 12.78125 9.335938 12.953125 9.335938 C 12.964844 9.335938 12.972656 9.34375 12.972656 9.355469 L 12.972656 10.128906 C 12.972656 10.136719 12.96875 10.144531 12.960938 10.152344 C 12.957031 10.15625 12.949219 10.160156 12.941406 10.15625 C 12.738281 10.136719 12.550781 10.183594 12.390625 10.296875 C 12.21875 10.417969 12.132812 10.613281 12.132812 10.886719 L 12.132812 12.234375 C 12.132812 12.242188 12.128906 12.246094 12.128906 12.25 C 12.125 12.25 12.121094 12.253906 12.117188 12.253906 L 11.4375 12.253906 C 11.429688 12.253906 11.421875 12.246094 11.421875 12.234375 L 11.421875 9.410156 C 11.421875 9.402344 11.425781 9.394531 11.4375 9.394531 L 12.117188 9.394531 C 12.125 9.394531 12.132812 9.402344 12.132812 9.410156 Z M 15.5 9.394531 C 15.492188 9.394531 15.488281 9.394531 15.488281 9.398438 C 15.484375 9.402344 15.480469 9.40625 15.480469 9.410156 L 15.480469 9.730469 C 15.269531 9.453125 14.96875 9.316406 14.582031 9.316406 C 14.214844 9.316406 13.898438 9.460938 13.636719 9.75 C 13.371094 10.042969 13.242188 10.402344 13.242188 10.824219 C 13.242188 11.246094 13.371094 11.605469 13.636719 11.894531 C 13.898438 12.1875 14.214844 12.332031 14.582031 12.332031 C 14.96875 12.332031 15.269531 12.195312 15.480469 11.914062 L 15.480469 12.234375 C 15.480469 12.246094 15.488281 12.253906 15.5 12.253906 L 16.175781 12.253906 C 16.1875 12.253906 16.195312 12.246094 16.195312 12.234375 L 16.195312 9.410156 C 16.195312 9.40625 16.191406 9.402344 16.1875 9.398438 C 16.1875 9.394531 16.183594 9.394531 16.175781 9.394531 Z M 14.167969 11.40625 C 14.3125 11.554688 14.492188 11.628906 14.714844 11.628906 C 14.9375 11.628906 15.117188 11.554688 15.265625 11.402344 C 15.410156 11.253906 15.480469 11.058594 15.480469 10.824219 C 15.480469 10.585938 15.410156 10.394531 15.265625 10.242188 C 15.117188 10.09375 14.9375 10.019531 14.714844 10.019531 C 14.496094 10.019531 14.3125 10.09375 14.167969 10.242188 C 14.023438 10.394531 13.953125 10.585938 13.953125 10.824219 C 13.953125 11.058594 14.023438 11.253906 14.167969 11.40625 Z M 19.359375 9.75 C 19.09375 9.460938 18.777344 9.316406 18.40625 9.316406 C 18.019531 9.316406 17.722656 9.453125 17.511719 9.730469 L 17.511719 9.410156 C 17.511719 9.402344 17.503906 9.394531 17.496094 9.394531 L 16.816406 9.394531 C 16.808594 9.394531 16.800781 9.402344 16.800781 9.410156 L 16.800781 13.378906 C 16.800781 13.390625 16.808594 13.398438 16.816406 13.398438 L 17.496094 13.398438 C 17.503906 13.398438 17.511719 13.390625 17.511719 13.378906 L 17.511719 11.914062 C 17.722656 12.195312 18.019531 12.332031 18.40625 12.332031 C 18.777344 12.332031 19.09375 12.1875 19.359375 11.894531 C 19.621094 11.605469 19.753906 11.246094 19.753906 10.824219 C 19.753906 10.402344 19.621094 10.042969 19.359375 9.75 Z M 17.726562 11.40625 C 17.871094 11.554688 18.054688 11.628906 18.273438 11.628906 C 18.496094 11.628906 18.675781 11.554688 18.824219 11.402344 C 18.96875 11.253906 19.039062 11.058594 19.039062 10.824219 C 19.039062 10.585938 18.96875 10.394531 18.824219 10.242188 C 18.675781 10.09375 18.496094 10.019531 18.273438 10.019531 C 18.054688 10.019531 17.871094 10.09375 17.726562 10.242188 C 17.585938 10.394531 17.511719 10.585938 17.511719 10.824219 C 17.511719 11.058594 17.585938 11.253906 17.726562 11.40625 Z M 20.191406 12.253906 C 20.183594 12.253906 20.175781 12.246094 20.175781 12.234375 L 20.175781 9.410156 C 20.175781 9.402344 20.183594 9.394531 20.191406 9.394531 L 20.871094 9.394531 C 20.882812 9.394531 20.886719 9.402344 20.886719 9.410156 L 20.886719 12.238281 C 20.886719 12.246094 20.882812 12.253906 20.871094 12.253906 Z M 7.5 10.390625 C 7.402344 10.34375 7.355469 10.28125 7.355469 10.207031 C 7.355469 10.132812 7.382812 10.078125 7.445312 10.035156 C 7.503906 9.992188 7.582031 9.972656 7.675781 9.972656 C 7.851562 9.972656 7.984375 10.042969 8.074219 10.1875 C 8.078125 10.195312 8.09375 10.199219 8.101562 10.195312 L 8.703125 9.917969 C 8.707031 9.917969 8.710938 9.914062 8.710938 9.910156 C 8.714844 9.90625 8.714844 9.898438 8.710938 9.894531 C 8.703125 9.882812 8.695312 9.871094 8.691406 9.859375 C 8.585938 9.691406 8.453125 9.566406 8.285156 9.472656 C 8.101562 9.367188 7.898438 9.316406 7.675781 9.316406 C 7.375 9.316406 7.125 9.394531 6.925781 9.558594 C 6.726562 9.71875 6.625 9.941406 6.625 10.222656 C 6.625 10.410156 6.675781 10.566406 6.773438 10.691406 C 6.867188 10.8125 6.988281 10.90625 7.128906 10.960938 C 7.265625 11.019531 7.40625 11.066406 7.546875 11.105469 C 7.6875 11.140625 7.804688 11.183594 7.902344 11.234375 C 8 11.28125 8.050781 11.34375 8.050781 11.417969 C 8.050781 11.582031 7.921875 11.664062 7.667969 11.664062 C 7.425781 11.664062 7.257812 11.570312 7.167969 11.386719 C 7.160156 11.371094 7.140625 11.363281 7.125 11.371094 L 6.523438 11.644531 C 6.519531 11.648438 6.519531 11.652344 6.515625 11.65625 C 6.515625 11.660156 6.515625 11.664062 6.515625 11.667969 L 6.523438 11.683594 C 6.734375 12.117188 7.113281 12.332031 7.667969 12.332031 C 7.984375 12.332031 8.25 12.253906 8.460938 12.097656 C 8.671875 11.9375 8.777344 11.710938 8.777344 11.417969 C 8.777344 11.222656 8.730469 11.0625 8.632812 10.933594 C 8.539062 10.808594 8.417969 10.710938 8.277344 10.65625 C 8.136719 10.601562 8 10.554688 7.855469 10.519531 C 7.714844 10.480469 7.597656 10.441406 7.5 10.390625 Z M 7.5 10.390625 "/>
</g>
</svg>
